<?xml version="1.0" encoding="utf-8"?>
<!-- Svg Vector Icons : http://www.onlinewebfonts.com/icon -->
<!DOCTYPE svg PUBLIC "-//W3C//DTD SVG 1.1//EN" "http://www.w3.org/Graphics/SVG/1.1/DTD/svg11.dtd">
<svg version="1.1" xmlns="http://www.w3.org/2000/svg" xmlns:xlink="http://www.w3.org/1999/xlink" x="0px" y="0px" viewBox="0 0 1000 1000" enable-background="new 0 0 1000 1000" xml:space="preserve">
<metadata> Svg Vector Icons : http://www.onlinewebfonts.com/icon </metadata>
<g><path d="M599.8,801.5c-1.5,7-3.5,14.5-5.5,21.6h54.1c8,0,15-6.5,15-15v-77.2c0-8.5-6.5-15-15-15h-42.1c0.5,6,0.5,12.5,0.5,19c0,1,0,1.5,0,2.5h35.1v64.2H599.8z M905,10H287.5c-35.1,0-63.7,29.1-63.7,64.2v347.4c14-3,28.1-4.5,42.6-5.5V74.2c0-12,9.5-21.6,21.1-21.6H905c11.5,0,21.1,9.5,21.1,21.6v786c0,12-9.5,21.6-21.1,21.6H570.7c-8,15-17,29.6-27.1,43.1h360.9c35.1,0,63.7-29.1,63.7-64.2V74.2C968.7,38.6,940.1,10,905,10z M309.5,416c32.6,2,63.7,9.5,92.7,20.6h8c8,0,15-6.5,15-15v-77.7c0-8.5-6.5-15-15-15h-85.7c-8,0-15,6.5-15,15V416z M331.1,350.4h73.2v64.2h-73.2V350.4z M297.5,723.3V621.6c14,2,27.1,8,36.6,18c4.5,4.5,12.5,5,17.5,1c5-4,5.5-11.5,1-16C338.6,610,319,601,297.5,599v-23.1c0-6.5-5.5-11.5-12.5-11.5c-7,0-12.5,5-12.5,11.5V600c-40.1,6-70.7,36.1-70.7,72.7c0,36.1,30.6,66.7,70.7,72.7v101.3c-26.1-5.5-45.6-25.6-45.6-49.1c0-6.5-5.5-11.5-12.5-11.5s-12.5,5-12.5,11.5c0,36.1,30.6,66.7,70.7,72.7v24.1c0,6.5,5.5,11.5,12.5,11.5c7,0,12.5-5,12.5-11.5v-23.1c42.1-4.5,75.2-35.6,75.2-73.2C372.7,758.9,340.1,727.8,297.5,723.3z M272.9,721.3c-26.1-5.5-45.6-25.6-45.6-49.1c0-23.6,19.5-43.6,45.6-49.1V721.3z M297.5,846.6V746.4c28.6,4,50.1,25.1,50.1,50.1C348.1,822.1,326.1,842.6,297.5,846.6z M287.5,478.7C146.6,478.7,31.8,593,31.8,734.3C31.8,875.2,146.1,990,287.5,990c140.9,0,255.7-114.3,255.7-255.7C543.1,593.5,428.8,478.7,287.5,478.7z M287.5,947.4c-117.8,0-213-95.2-213-213c0-117.8,95.2-213,213-213c117.8,0,213,95.2,213,213C500.5,852.1,405.3,947.4,287.5,947.4z M662.9,537.3c0-8.5-6.5-15-15-15h-85.2c-8,0-15,6.5-15,15v12c7.5,11,15,22.1,21.1,34.1v-39.6h73.2V608h-61.2c3,7,6,14,8.5,21.6h59.2c8,0,15-6.5,15-15v-77.2H662.9z M882.5,98.2h-573v152.9h573V98.2z M861.4,229.6H331.1V119.8h530.4V229.6z M862.9,522.3h-85.7c-8,0-15,6.5-15,15V808c0,8.5,6.5,15,15,15h85.7c8,0,15-6.5,15-15V537.3C878,528.8,871.4,522.3,862.9,522.3z M856.9,801.5h-73.2V543.9h73.2V801.5z M662.9,343.9c0-8.5-6.5-15-15-15h-85.2c-8,0-15,6.5-15,15V421c0,8.5,6.5,15,15,15h85.7c8,0,15-6.5,15-15v-77.2H662.9z M641.9,415h-73.2v-64.7h73.2V415z M878,343.9c0-8.5-6.5-15-15-15h-85.7c-8,0-15,6.5-15,15V421c0,8.5,6.5,15,15,15h85.7c8,0,15-6.5,15-15V343.9z M856.9,415h-73.2v-64.7h73.2V415z"/></g>
</svg>